<?xml version="1.0" encoding="utf-8"?>
<svg xmlns="http://www.w3.org/2000/svg" xmlns:svg="http://www.w3.org/2000/svg" version="1.1" viewBox="0 0 1400 440">
	<title>The titlepage for the Standard Ebooks edition of The Tenant of Wildfell Hall, by Anne Brontë</title>
	<g aria-label="THE TENANT">
		<path d="m 382.5614,68.245613 h 18.33918 V 130 h 17.59064 V 68.245613 h 18.33919 V 52.807016 H 382.5614 Z"/>
		<path d="m 465.75584,99.029239 h 24.88889 V 130 h 17.59065 V 52.807016 H 490.64473 V 83.590642 H 465.75584 V 52.807016 H 448.1652 V 130 h 17.59064 z"/>
		<path d="M 568.60088,52.807016 H 524.43713 V 130 h 44.16375 v -15.4386 h -26.5731 V 99.029239 h 25.45029 V 83.590642 H 542.02778 V 68.245613 h 26.5731 z"/>
		<path d="m 604.86404,68.245613 h 18.33918 V 130 h 17.59065 V 68.245613 h 18.33918 V 52.807016 h -54.26901 z"/>
		<path d="M 714.63159,52.807016 H 670.46785 V 130 h 44.16374 v -15.4386 h -26.5731 V 99.029239 h 25.4503 V 83.590642 h -25.4503 V 68.245613 h 26.5731 z"/>
		<path d="m 747.3348,82.093566 h 0.18713 L 778.21199,130 h 17.59065 V 52.807016 h -17.59065 v 47.906434 h -0.18713 L 747.3348,52.807016 H 729.74416 V 130 h 17.59064 z"/>
		<path d="m 851.25148,52.807016 h -16.2807 L 803.81288,130 h 18.90059 l 5.7076,-15.4386 h 29.38012 L 863.50879,130 h 18.90058 z m 0.5614,46.31579 h -17.40351 l 8.60819,-22.45614 h 0.18713 z"/>
		<path d="m 907.91961,82.093566 h 0.18713 L 938.7968,130 h 17.59065 V 52.807016 H 938.7968 v 47.906434 h -0.18713 L 907.91961,52.807016 H 890.32896 V 130 h 17.59065 z"/>
		<path d="m 963.19738,68.245613 h 18.33919 V 130 h 17.59064 V 68.245613 h 18.33919 V 52.807016 h -54.26902 z"/>
	</g>
	<g aria-label="OF WILDFELL HALL">
		<path d="m 216.18713,191.35672 c 0,22.54971 16.09356,40.04679 38.92397,40.04679 22.17544,0 38.83041,-17.49708 38.83041,-40.04679 0,-22.5497 -17.40351,-39.95321 -38.83041,-39.95321 -21.23976,0 -38.92397,17.40351 -38.92397,39.95321 z m 18.99415,0 c 0,-11.50877 6.36257,-23.01754 19.92982,-23.01754 13.66082,0 19.83626,11.50877 19.83626,23.01754 0,11.50878 -5.80117,23.01755 -19.83626,23.01755 -14.40935,0 -19.92982,-11.50877 -19.92982,-23.01755 z"/>
		<path d="M 351.33479,152.80702 H 306.70321 V 230 h 17.59064 v -30.97076 h 24.98246 v -15.4386 h -24.98246 v -15.34503 h 27.04094 z"/>
		<path d="m 446.47222,230 h 19.46199 l 21.9883,-77.19298 h -19.46199 l -13.19298,52.95906 h -0.46784 l -14.03508,-52.95906 h -13.28655 l -14.03509,52.95906 h -0.46784 L 399.78216,152.80702 H 380.2266 L 402.21491,230 h 19.55555 l 12.35088,-43.32164 z"/>
		<path d="M 514.73243,152.80702 H 497.14179 V 230 h 17.59064 z"/>
		<path d="M 548.6067,152.80702 H 531.01606 V 230 h 44.16374 v -15.4386 h -26.5731 z"/>
		<path d="M 588.83039,152.80702 V 230 h 22.36257 c 21.23977,0 38.92398,-16.09357 38.92398,-38.64328 0,-22.45614 -17.77778,-38.5497 -38.92398,-38.5497 z m 17.59064,61.47368 v -45.75439 h 2.71345 c 13.09942,0 21.98831,10.0117 21.98831,22.92398 -0.0936,12.91228 -8.98246,22.83041 -21.98831,22.83041 z"/>
		<path d="M 707.54092,152.80702 H 662.90934 V 230 h 17.59064 v -30.97076 h 24.98246 v -15.4386 h -24.98246 v -15.34503 h 27.04094 z"/>
		<path d="M 765.07018,152.80702 H 720.90644 V 230 h 44.16374 v -15.4386 h -26.5731 v -15.53216 h 25.4503 v -15.4386 h -25.4503 v -15.34503 h 26.5731 z"/>
		<path d="M 797.77339,152.80702 H 780.18275 V 230 h 44.16374 v -15.4386 h -26.5731 z"/>
		<path d="M 855.58772,152.80702 H 837.99708 V 230 h 44.16374 v -15.4386 h -26.5731 z"/>
		<path d="m 943.98683,199.02924 h 24.88889 V 230 h 17.59064 v -77.19298 h -17.59064 v 30.78362 H 943.98683 V 152.80702 H 926.39619 V 230 h 17.59064 z"/>
		<path d="m 1041.8728,152.80702 h -16.2807 L 994.43424,230 h 18.90056 l 5.7076,-15.4386 h 29.3801 L 1054.1301,230 h 18.9006 z m 0.5614,46.31579 h -17.4035 l 8.6082,-22.45614 h 0.1872 z"/>
		<path d="m 1098.541,152.80702 h -17.5907 V 230 h 44.1638 v -15.4386 h -26.5731 z"/>
		<path d="m 1156.3552,152.80702 h -17.5906 V 230 h 44.1637 v -15.4386 h -26.5731 z"/>
	</g>
	<g aria-label="ANNE BRONTË">
		<path d="M 445.38761,332.10526 H 433.17709 L 409.80866,390 h 14.17544 l 4.2807,-11.57895 h 22.03509 L 454.58059,390 h 14.17544 z m 0.42105,34.73685 H 432.75603 L 439.21217,350 h 0.14035 z"/>
		<path d="m 489.13871,354.07018 h 0.14035 L 512.2966,390 h 13.19299 V 332.10526 H 512.2966 v 35.92983 h -0.14035 L 489.13871,332.10526 H 475.94573 V 390 h 13.19298 z"/>
		<path d="m 552.11568,354.07018 h 0.14036 L 575.27358,390 h 13.19298 v -57.89474 h -13.19298 v 35.92983 h -0.14035 L 552.11568,332.10526 H 538.9227 V 390 h 13.19298 z"/>
		<path d="m 635.02248,332.10526 h -33.1228 V 390 h 33.1228 v -11.57895 h -19.92982 v -11.64912 h 19.08772 v -11.57895 h -19.08772 v -11.50877 h 19.92982 z"/>
		<path d="M 671.7955,332.10526 V 390 h 21.96492 c 12,0 18.94737,-6.59649 18.94737,-16.14035 0,-9.33333 -5.12281,-13.33333 -12.35088,-14.59649 4.91228,-2.52632 7.22807,-7.08772 7.22807,-12.42105 0,-11.01755 -7.85965,-14.73685 -17.82456,-14.73685 z m 13.19299,22.66667 V 342.2807 h 1.05263 c 5.75438,0 8.77193,1.75439 8.77193,5.89474 0,4.8421 -3.08772,6.59649 -8.77193,6.59649 z m 0,25.05263 v -13.68421 h 4.14035 c 6.24561,0 9.68421,1.89474 9.68421,7.22807 0,4.5614 -3.4386,6.45614 -9.68421,6.45614 z"/>
		<path d="M 723.53345,332.10526 V 390 h 13.19298 V 367.12281 L 754.41064,390 h 16.77193 l -19.92982,-23.92982 c 7.08772,-2.24562 11.85965,-8.07018 11.85965,-16.77193 0,-11.36842 -8.14035,-17.19299 -18.8772,-17.19299 z m 13.19298,25.68421 v -15.15789 h 1.54386 c 4.98246,0 10.94737,0.35088 10.94737,7.57895 0,7.22807 -5.96491,7.57894 -10.94737,7.57894 z"/>
		<path d="m 776.2385,361.01754 c 0,16.91228 12.07018,30.03509 29.19299,30.03509 16.63157,0 29.1228,-13.12281 29.1228,-30.03509 0,-16.91228 -13.05263,-29.96491 -29.1228,-29.96491 -15.92983,0 -29.19299,13.05263 -29.19299,29.96491 z m 14.24562,0 c 0,-8.63157 4.77193,-17.26315 14.94737,-17.26315 10.24561,0 14.87719,8.63158 14.87719,17.26315 0,8.63158 -4.35088,17.26316 -14.87719,17.26316 -10.80702,0 -14.94737,-8.63158 -14.94737,-17.26316 z"/>
		<path d="m 858.56853,354.07018 h 0.14036 L 881.72643,390 h 13.19298 v -57.89474 h -13.19298 v 35.92983 h -0.14035 L 858.56853,332.10526 H 845.37555 V 390 h 13.19298 z"/>
		<path d="m 901.27688,343.68421 h 13.75438 V 390 h 13.19298 v -46.31579 h 13.75439 v -11.57895 h -40.70175 z"/>
		<path d="m 959.51918,312.59649 c -3.57894,0 -6.45614,2.87719 -6.45614,6.45614 0,3.57895 2.8772,6.45614 6.45614,6.45614 3.57895,0 6.45614,-2.87719 6.45614,-6.45614 0,-3.57895 -2.87719,-6.45614 -6.45614,-6.45614 z m 16.63158,0 c -3.57895,0 -6.45614,2.87719 -6.45614,6.45614 0,3.57895 2.87719,6.45614 6.45614,6.45614 3.57895,0 6.45614,-2.87719 6.45614,-6.45614 0,-3.57895 -2.87719,-6.45614 -6.45614,-6.45614 z m 8.70176,19.50877 H 951.72971 V 390 h 33.12281 v -11.57895 h -19.92983 v -11.64912 h 19.08772 v -11.57895 h -19.08772 v -11.50877 h 19.92983 z"/>
	</g>
</svg>
